<?xml version="1.0" encoding="utf-8"?>
<!-- Generator: Adobe Illustrator 26.1.0, SVG Export Plug-In . SVG Version: 6.00 Build 0)  -->
<svg version="1.1" id="Layer_1" xmlns="http://www.w3.org/2000/svg" xmlns:xlink="http://www.w3.org/1999/xlink" x="0px" y="0px"
	 viewBox="0 0 3008 2071" style="enable-background:new 0 0 3008 2071;" xml:space="preserve">
<style type="text/css">
	.st0{display:none;}
	.st1{display:inline;fill:#FFFFFF;stroke:#FFFFFF;stroke-width:3;stroke-miterlimit:10;}
	.st2{fill:#FFFFFF;stroke:#000000;stroke-width:47.0665;stroke-linecap:round;stroke-miterlimit:10;}
	.st3{stroke:#000000;stroke-width:100;stroke-linecap:round;stroke-miterlimit:10;}
	.st4{stroke:#000000;stroke-width:50;stroke-linecap:round;stroke-miterlimit:10;}
	.st5{display:inline;}
	.st6{fill:#FFFFFF;stroke:#000000;stroke-width:2;stroke-linecap:round;stroke-miterlimit:10;}
	.st7{fill:none;stroke:#000000;stroke-width:2;stroke-linecap:round;stroke-miterlimit:10;}
	.st8{fill:none;stroke:#000000;stroke-width:2;stroke-linecap:round;stroke-miterlimit:10;stroke-dasharray:0,0,0,0,0,0;}
	.st9{fill:none;stroke:#000000;stroke-width:3;stroke-miterlimit:10;}
</style>
<g id="Layer_3" class="st0">
	<rect class="st1" width="211" height="140"/>
</g>
<g id="Layer_1_00000028286275276034848910000002972799535526016702_">
	<g>
		<path class="st2" d="M541.7-315"/>
		<g>
			<g>
				<g>
					<path class="st3" d="M1776.9,106.9c-128.8-66.2-293.2-60.8-419.8,17.4c-63.8,37.9-116.4,93.7-154.8,158.1
						c-36.4,65.4-58.2,140.2-58.8,216.3c-0.5,75.8,17,153,53.8,220.8c36.7,67.5,89.9,127.1,156,168.8
						c32.2,21.8,68.4,37.6,105.4,50.8c37.5,11.3,76.3,20.8,115.5,22.1c78.7,6.2,159.3-9.2,231.6-43c24.5-11.6,42.6-29.5,51.7-46.6
						c8.9-17.4,9.2-34.1,0.3-45.1l-3.8-4.7c-16.7-19.6-53.8-15.3-86.6,2.9c-109.7,63-254.8,64.2-368.5,0.3
						c-115.5-61.7-194.3-188.3-200.3-322.6c-4.2-67.4,11.3-135.1,40.8-196.4c30.5-60.8,76.4-114.6,133.4-153.7
						c113.4-79.3,270.4-95.5,400.7-37.2C1781.7,118.6,1785.5,111.1,1776.9,106.9z"/>
				</g>
			</g>
		</g>
		<g>
			<g>
				<g>
					<path class="st4" d="M2043.6,675.7c72.9-115.8,85.9-271.8,27.5-404c-5-11.3-19.7-14.3-32.2-7.2l-2.6,1.4
						c-11,6.3-15.9,18.4-11.3,26.8c65.7,110.6,73.9,258.1,14.6,381C2038.8,675.6,2042.5,677.7,2043.6,675.7z"/>
				</g>
			</g>
		</g>
		<g>
			<g>
				<g>
					<path class="st3" d="M999.9,1818.9c86.2,78.1,191.6,135.5,304.6,166.2c113.3,30.1,233.9,35,349.4,10.4
						c115.5-24.2,225.6-75.5,319.3-148.9c92.7-74.6,168.3-170.9,219.1-279.3c101.2-217.5,93.3-485.1-26.2-697.8
						c-59.3-105.9-142.6-199.6-244-268.5c-101.4-68.7-219.3-113.9-341.7-130.4c-20.5-3.3-40.5-1.8-58.7-0.8
						c-18.2,1.7-34.3,4.1-48,9.2c-27.1,9.6-42.6,24.1-41.4,38.1l0.5,6.2c0.9,12.9,16.2,23,38.7,30.5c22.6,7.1,52.2,15.3,85,15.5
						c108,8.4,213.7,43.8,306.8,100.3c93.9,56,172.2,137,230.4,230.1c15.8,22.6,26.6,48.3,39.3,72.5c12,25,20.5,51.1,30.5,77
						c15.5,52.9,28.4,107.1,31.7,162.6c8.4,110.6-7.5,223.8-50.1,327.3c-43.3,103-110.6,196.4-195.5,270.9
						c-85.6,73.4-188.9,126.3-299.3,153.7c-110.1,28-227.7,27.8-339.3,2.1c-111.6-25.9-217.5-78.8-305.5-153.4
						C994,1802.5,988.5,1808.5,999.9,1818.9z"/>
				</g>
			</g>
		</g>
		<g>
			<g>
				<g>
					<path class="st4" d="M1209.8,587.2C1037.1,664.8,896.6,813.4,825.5,992c-71.3,178.5-71.7,386,2.6,566.9
						c12.5,30.5,35.3,49.5,48,42.6l2.6-1.4c11.3-6.2,9.6-31.3-2.1-56.3c-77.6-165.9-87.8-363.8-26.3-539.7
						c60.8-175.8,192.1-328.5,361.3-413.2C1217.3,588.4,1215.6,584.6,1209.8,587.2z"/>
				</g>
			</g>
		</g>
	</g>
</g>
<g id="Layer_2_00000075843801057971103310000017523106096089254312_" class="st0">
	<g class="st5">
		<path class="st6" d="M62.6,153"/>
		<line class="st7" x1="9" y1="153.3" x2="134.3" y2="153.3"/>
		<line class="st7" x1="71.4" y1="270.2" x2="197.9" y2="270.4"/>
		<line class="st8" x1="143.1" y1="153" x2="144" y2="269.6"/>
		<line class="st7" x1="62.5" y1="154.3" x2="62.6" y2="269.4"/>
		<path class="st9" d="M119.9,199.4l-27.5-0.1c0,0-6.9,0-6.9,6.9s6.8,6.9,6.8,6.9s6.9,0.1,6.9,6.9s-6.8,7-6.8,7h-6.9"/>
		<line class="st9" x1="109.4" y1="227" x2="109.6" y2="199.4"/>
		<circle class="st9" cx="101.8" cy="211.8" r="25.8"/>
	</g>
</g>
</svg>
