<?xml version="1.0" encoding="utf-8"?>
<!-- Generator: Adobe Illustrator 26.0.2, SVG Export Plug-In . SVG Version: 6.00 Build 0)  -->
<svg version="1.1" id="Layer_1" xmlns="http://www.w3.org/2000/svg" xmlns:xlink="http://www.w3.org/1999/xlink" x="0px" y="0px"
	 viewBox="0 0 3008.04 2070.96" style="enable-background:new 0 0 3008.04 2070.96;" xml:space="preserve">
<style type="text/css">
	.st0{display:none;}
	.st1{display:inline;fill:#FFFFFF;stroke:#FFFFFF;stroke-width:3;stroke-miterlimit:10;}
	.st2{fill:#FFFFFF;stroke:#000000;stroke-width:31.2918;stroke-linecap:round;stroke-miterlimit:10;}
	.st3{fill:none;stroke:#000000;stroke-width:50;stroke-linecap:round;stroke-miterlimit:10;}
	.st4{stroke:#000000;stroke-width:23.4688;stroke-linecap:round;stroke-miterlimit:10;}
	.st5{stroke:#000000;stroke-width:11.7344;stroke-linecap:round;stroke-miterlimit:10;}
	.st6{fill:#FFFFFF;stroke:#000000;stroke-width:50;stroke-linecap:round;stroke-miterlimit:10;stroke-dasharray:0,0,0,0,0,0;}
	.st7{display:inline;}
	.st8{fill:#FFFFFF;stroke:#000000;stroke-width:2;stroke-linecap:round;stroke-miterlimit:10;}
	.st9{fill:none;stroke:#000000;stroke-width:2;stroke-linecap:round;stroke-miterlimit:10;}
	.st10{fill:none;stroke:#000000;stroke-width:2;stroke-linecap:round;stroke-miterlimit:10;stroke-dasharray:0,0,0,0,0,0;}
	.st11{fill:none;stroke:#000000;stroke-width:3;stroke-miterlimit:10;}
</style>
<g id="Layer_3" class="st0">
	<rect class="st1" width="211" height="140"/>
</g>
<g id="Layer_1_00000028286275276034848910000002972799535526016702_">
	<g>
		<path class="st2" d="M864.42,120.04"/>
		<line class="st3" x1="26.27" y1="1950.92" x2="1986.85" y2="1950.61"/>
		<line class="st3" x1="1002.57" y1="123.79" x2="2981.77" y2="126.61"/>
		<g>
			<g>
				<g>
					<path class="st4" d="M1735.73,418.72c-85.58-43.96-194.95-40.37-279.12,11.58c-42.4,25.19-77.45,62.27-102.95,105.14
						c-24.25,43.5-38.65,93.25-39.11,143.79c-0.31,50.38,11.27,101.7,35.83,146.76c24.41,44.9,59.77,84.49,103.73,112.18
						c21.43,14.55,45.53,25.03,70.09,33.8c24.88,7.51,50.69,13.77,76.82,14.71c52.26,4.07,105.92-6.1,153.96-28.63
						c16.27-7.67,28.32-19.56,34.42-30.98c5.95-11.58,6.1-22.69,0.16-30.04l-2.5-3.13c-11.11-12.99-35.83-10.17-57.58,1.88
						c-72.91,41.93-169.45,42.71-245.01,0.16c-76.82-40.99-129.23-125.17-133.15-214.51c-2.82-44.75,7.51-89.81,27.07-130.64
						c20.34-40.37,50.85-76.2,88.71-102.17c75.41-52.73,179.77-63.52,266.45-24.72C1738.86,426.54,1741.37,421.53,1735.73,418.72z"
						/>
				</g>
			</g>
		</g>
		<g>
			<g>
				<g>
					<path class="st5" d="M1862.94,811.43c48.5-76.98,57.11-180.71,18.31-268.64c-3.29-7.51-13.14-9.54-21.43-4.85l-1.72,0.94
						c-7.35,4.22-10.64,12.2-7.51,17.84c43.65,73.54,49.13,171.64,9.7,253.31C1859.65,811.27,1862.15,812.68,1862.94,811.43z"/>
				</g>
			</g>
		</g>
		<g>
			<g>
				<g>
					<path class="st4" d="M1169.04,1542.72c57.26,51.94,127.36,90.12,202.46,110.46c75.26,20.03,155.52,23.31,232.34,6.88
						c76.82-16.12,150.04-50.22,212.31-99.04c61.64-49.6,111.87-113.59,145.66-185.72c67.28-144.57,61.96-322.46-17.37-463.9
						c-39.43-70.41-94.81-132.68-162.25-178.52c-67.43-45.69-145.82-75.73-227.18-86.68c-13.61-2.19-26.91-1.25-38.96-0.47
						c-12.05,1.1-22.84,2.66-31.92,6.1c-17.99,6.41-28.32,15.96-27.54,25.35l0.31,4.07c0.63,8.61,10.8,15.33,25.66,20.34
						c15.02,4.69,34.73,10.17,56.48,10.33c71.81,5.63,142.06,29.1,204.02,66.65c62.43,37.24,114.53,91.06,153.17,153.02
						c10.48,15.02,17.68,32.07,26.13,48.19c7.98,16.58,13.61,33.95,20.34,51.16c10.33,35.2,18.93,71.19,21.12,108.11
						c5.63,73.54-5.01,148.79-33.33,217.63c-28.79,68.53-73.54,130.64-130.02,180.08c-56.95,48.82-125.64,84.02-199.02,102.17
						c-73.22,18.62-151.45,18.46-225.61,1.41c-74.16-17.21-144.57-52.41-203.08-102.01
						C1165.13,1531.77,1161.37,1535.83,1169.04,1542.72z"/>
				</g>
			</g>
		</g>
		<g>
			<g>
				<g>
					<path class="st5" d="M1279.81,723.81c-114.84,51.63-208.25,150.36-255.5,269.11c-47.41,118.75-47.72,256.59,1.72,376.91
						c8.29,20.34,23.47,32.86,31.92,28.32l1.72-0.94c7.51-4.07,6.41-20.81-1.41-37.39c-51.63-110.3-58.36-241.89-17.52-358.76
						c40.37-116.87,127.67-218.42,240.16-274.74C1284.82,724.59,1283.73,722.09,1279.81,723.81z"/>
				</g>
			</g>
		</g>
		<path class="st6" d="M2138.46,143.51c0,457.64-0.63,1807.1-0.63,1807.1"/>
		<line class="st3" x1="871.14" y1="120.04" x2="871.14" y2="1950.61"/>
	</g>
</g>
<g id="Layer_2_00000075843801057971103310000017523106096089254312_" class="st0">
	<g class="st7">
		<path class="st8" d="M62.57,153"/>
		<line class="st9" x1="9" y1="153.34" x2="134.31" y2="153.32"/>
		<line class="st9" x1="71.4" y1="270.25" x2="197.9" y2="270.43"/>
		<line class="st10" x1="143.07" y1="153" x2="143.96" y2="269.57"/>
		<line class="st9" x1="62.5" y1="154.26" x2="62.61" y2="269.35"/>
		<path class="st11" d="M119.88,199.45l-27.45-0.05c0,0-6.91-0.03-6.91,6.91s6.82,6.87,6.82,6.87s6.88,0.13,6.88,6.86
			s-6.84,7.04-6.84,7.04l-6.93-0.02"/>
		<line class="st11" x1="109.41" y1="227.01" x2="109.56" y2="199.45"/>
		<circle class="st11" cx="101.77" cy="211.81" r="25.8"/>
	</g>
</g>
</svg>
